<svg xmlns="http://www.w3.org/2000/svg" viewBox="0 0 272.99 79.31"><defs><style>.cls-1,.cls-5{fill:#fff;}.cls-2{fill:#e55526;}.cls-3{fill:#444;}.cls-4{fill:none;stroke:#fff;stroke-miterlimit:10;stroke-width:2px;}.cls-5{font-size:16.59px;font-family:Chanel-Regular, Chanel;letter-spacing:0.08em;}.cls-6{font-family:ChanelGras;}</style></defs><title>Asset 2</title><g id="Layer_2" data-name="Layer 2"><g id="Layer_1-2" data-name="Layer 1"><path class="cls-1" d="M1.49,55.2Q4,48.66,5.31,44.72q2-5.86,5-15.17,2.29-7.14,3.19-10.21l1-3.36c2,.08,3.71.13,5.16.14s3.26,0,5.57-.07S29.7,16,31.7,16a32.67,32.67,0,0,1,5.91.53,9.89,9.89,0,0,1,4.3,1.94,8.42,8.42,0,0,1,2.67,3.81,14.72,14.72,0,0,1,.73,5.47,26.72,26.72,0,0,1-1.06,6.44,36.89,36.89,0,0,1-2.44,6.24,34.45,34.45,0,0,1-3.29,5.4A26.75,26.75,0,0,1,34.73,50a23,23,0,0,1-4.25,2.94,19.68,19.68,0,0,1-3.27,1.41,22.83,22.83,0,0,1-4.17.79,55,55,0,0,1-6.4.28l-10.37-.2C5.3,55.16,3.7,55.17,1.49,55.2Zm13.63-8.53a26.51,26.51,0,0,0,2.91.17,21,21,0,0,0,4.83-.46,10.22,10.22,0,0,0,4.25-2.18,15.3,15.3,0,0,0,3.57-4.33A25,25,0,0,0,33,34.43a13,13,0,0,0,.57-5.77,4.55,4.55,0,0,0-2-3.3,9.69,9.69,0,0,0-4.73-1c-1.24,0-2.71,0-4.43.12Z"/><path class="cls-1" d="M69.84,47.23q-.84,1.71-3.7,8.32-3.18.63-5.27.82a39.06,39.06,0,0,1-4.18.17A29,29,0,0,1,51.2,56a9,9,0,0,1-4-1.73,7.54,7.54,0,0,1-2.26-3A10.69,10.69,0,0,1,44.31,47a20.68,20.68,0,0,1,.82-5.09,26.52,26.52,0,0,1,3.4-7.18,21.52,21.52,0,0,1,5-5.46,16.8,16.8,0,0,1,5.59-2.77,21.17,21.17,0,0,1,5.77-.77,18.21,18.21,0,0,1,5.37.82A6.94,6.94,0,0,1,74,29.22a8,8,0,0,1,1.39,4.31,16.15,16.15,0,0,1-.7,5.16,27.94,27.94,0,0,1-1.4,3.64l-18-.16c-.11.3-.2.58-.27.83q-.9,3.09.66,4.57A6.24,6.24,0,0,0,60,49.08a20.74,20.74,0,0,0,4-.4C65.58,48.4,67.51,47.91,69.84,47.23ZM56.72,37.77l8.49.09c.11-.32.2-.6.26-.83a6,6,0,0,0,.27-2.56,2.18,2.18,0,0,0-.91-1.57A3.38,3.38,0,0,0,63,32.39a4.67,4.67,0,0,0-1.58.26,5.57,5.57,0,0,0-1.53.79,7.22,7.22,0,0,0-1.32,1.21A9.23,9.23,0,0,0,57.6,36C57.36,36.41,57.06,37,56.72,37.77Z"/><path class="cls-1" d="M73,56l2.25-6.18,7.23-21.48L86.1,16.75c2.37.06,4.16.1,5.36.11,1.56,0,3.3,0,5.2,0l-3.15,8.82L86.26,47.4l-2.73,8.68c-1.83,0-3.48-.06-5-.08Z"/><path class="cls-1" d="M89.18,56.14c.92-2.33,1.65-4.26,2.21-5.77s1.24-3.45,2-5.8,1.65-5,2.57-7.82,1.94-6.17,3.09-9.94c2.21.06,4,.1,5.33.11h5.27q-2,5.43-3.41,9.54c-.92,2.74-1.85,5.64-2.77,8.71q-2.48,8.16-3.33,11.09c-2-.06-3.77-.1-5.25-.11S91.55,56.13,89.18,56.14Z"/><path class="cls-1" d="M112.84,56.4V46.94l-.37-20c2,.06,3.76.1,5.44.12s3.4,0,5,0q-.13,2-.29,7T122,45.85l1.36-2.37,2.27-3.67,7.77-12.64c1.83.06,3.58.1,5.22.12s3.47,0,5.31,0l-6,8.5L126.38,52.68l-2.53,3.84c-2-.06-3.79-.1-5.33-.12S115,56.38,112.84,56.4Z"/><path class="cls-1" d="M164.78,48.24q-.84,1.73-3.7,8.33-3.18.63-5.27.82a39.06,39.06,0,0,1-4.18.17,29,29,0,0,1-5.49-.53,9.1,9.1,0,0,1-3.95-1.73,7.61,7.61,0,0,1-2.26-3,10.52,10.52,0,0,1-.67-4.29,20.19,20.19,0,0,1,.81-5.09,26.52,26.52,0,0,1,3.4-7.18,21.52,21.52,0,0,1,5-5.46A16.8,16.8,0,0,1,154,27.48a21.17,21.17,0,0,1,5.77-.77,17.89,17.89,0,0,1,5.37.82,6.94,6.94,0,0,1,3.74,2.71,8,8,0,0,1,1.39,4.31,16.09,16.09,0,0,1-.7,5.15,27.49,27.49,0,0,1-1.4,3.65l-18-.16c-.11.3-.2.58-.27.83q-.9,3.09.66,4.57A6.24,6.24,0,0,0,155,50.1a21.56,21.56,0,0,0,4-.4A57.59,57.59,0,0,0,164.78,48.24Zm-13.12-9.45,8.49.09c.11-.32.2-.6.26-.83a6.06,6.06,0,0,0,.27-2.57,2.18,2.18,0,0,0-.91-1.56,3.22,3.22,0,0,0-1.85-.51,4.81,4.81,0,0,0-1.57.25,5.77,5.77,0,0,0-1.54.79,8,8,0,0,0-1.32,1.22,8.71,8.71,0,0,0-1,1.33C152.3,37.43,152,38,151.66,38.79Z"/><path class="cls-1" d="M167.94,57l4.5-12.76,2.39-7.33q.6-2,1.2-4t1.46-5.2c2.06.06,3.7.09,4.92.11,1.42,0,3.06,0,4.93,0L186.29,31c.91-.84,1.64-1.46,2.19-1.87a13.8,13.8,0,0,1,1.79-1.1,9.23,9.23,0,0,1,1.94-.73,7.63,7.63,0,0,1,1.95-.22,7.25,7.25,0,0,1,2,.31c-.59,2.08-1,3.81-1.38,5.17L193.66,37a7.35,7.35,0,0,0-2.51-.49,7.44,7.44,0,0,0-2.81.48,8.14,8.14,0,0,0-2.42,1.5A11.43,11.43,0,0,0,183.81,41a25.06,25.06,0,0,0-2.12,4.82q-1.17,3.3-2.4,7.56c-.29,1-.61,2.23-1,3.71-1.66-.06-3.32-.09-5-.11S169.86,57,167.94,57Z"/><path class="cls-1" d="M229.15,38.86,237.72,47c-6.19,2-13.42-1.17-16.87-7a15.57,15.57,0,0,1,21.84-21c5.52,3.63,8.41,10.77,6.54,16.37h16.82c1.77-13.55-6.32-27.3-19.09-32.78a32.12,32.12,0,0,0-38.62,48.49c7.82,10.8,24.82,18.07,42.58,8.65l6.7,7.28,12.12-12L253.23,38.86Z"/><polyline class="cls-2" points="272.78 57.29 260.32 69.54 229.09 38.72 253.41 38.72 273 57.45"/><path class="cls-1" d="M105,24.09l.76-.61a55.27,55.27,0,0,0,5.46-4.91,18,18,0,0,0,3.2-4.46,8.11,8.11,0,0,0,.84-4.74,6.92,6.92,0,0,0-3.16-5.06,8.07,8.07,0,0,0-3.61-1.18,6.39,6.39,0,0,0-4,.75,7.5,7.5,0,0,0-3.9,6.46,13.87,13.87,0,0,0,.5,4.25,32.19,32.19,0,0,0,2.07,5.63C103.78,21.51,104.41,22.78,105,24.09Z"/><path class="cls-3" d="M109.06,5.58a4.74,4.74,0,1,1-5.64,3.63A4.74,4.74,0,0,1,109.06,5.58Z"/><line class="cls-4" x1="107.61" y1="64.54" y2="64.54"/><text class="cls-5" transform="matrix(0.86, 0.01, -0.28, 0.96, 108.08, 75.24)">P<tspan class="cls-6" x="16.31" y="0">ortal</tspan></text></g></g></svg>